<?xml version="1.0" encoding="UTF-8"?>
<svg id="Layer_1" xmlns="http://www.w3.org/2000/svg" version="1.1" viewBox="0 0 805 600">
  <!-- Generator: Adobe Illustrator 30.7.0, SVG Export Plug-In . SVG Version: 2.1.4 Build 114)  -->
  <defs>
    <style>
      .st0 {
        fill: none;
        stroke: #000;
      }

      .st1 {
        fill: #fff;
      }

      .st2 {
        fill: #7b7b7b;
        font-family: Arial-BoldMT, Arial;
        font-size: 12px;
        font-weight: 700;
      }

      .st2, .st3 {
        isolation: isolate;
      }

      .st3 {
        font-family: ArialMT, Arial;
        font-size: 10px;
      }

      .st4 {
        fill: #1f77b4;
      }
    </style>
  </defs>
  <rect id="background" class="st1" width="805" height="600"/>
  <g id="viz">
    <g>
      <g>
        <rect id="undefined_-_AirBnB" class="st4" x="51" y="512.8" width="247" height="67.2"/>
        <rect id="undefined_-_Federal_Transit_Administration" class="st4" x="299" y="272" width="247" height="308"/>
        <rect id="undefined_-_Lincoln_Financial_Field" class="st4" x="547" y="20" width="247" height="560"/>
      </g>
      <g id="xAxis">
        <path class="st0" d="M50,580h745"/>
        <g>
          <line class="st0" x1="174.5" y1="580" x2="174.5" y2="586"/>
          <text class="st3" transform="translate(158.94 596.1)"><tspan x="0" y="0">AirBnB</tspan></text>
        </g>
        <g>
          <line class="st0" x1="422.5" y1="580" x2="422.5" y2="586"/>
          <text class="st3" transform="translate(356.36 596.1)"><tspan x="0" y="0">Federal Transit Administration</tspan></text>
        </g>
        <g>
          <line class="st0" x1="670.5" y1="580" x2="670.5" y2="586"/>
          <text class="st3" transform="translate(621.03 596.1)"><tspan x="0" y="0">Lincoln Financial Field</tspan></text>
        </g>
        <text class="st2" transform="translate(13.54 596.1)"><tspan x="0" y="0">COMPANY</tspan></text>
      </g>
      <g id="yAxis">
        <path class="st0" d="M44,580h6V20h-6"/>
        <g>
          <line class="st0" x1="50" y1="580" x2="44" y2="580"/>
          <text class="st3" transform="translate(35.44 583.2)"><tspan x="0" y="0">0</tspan></text>
        </g>
        <g>
          <line class="st0" x1="50" y1="524" x2="44" y2="524"/>
          <text class="st3" transform="translate(35.44 527.2)"><tspan x="0" y="0">1</tspan></text>
        </g>
        <g>
          <line class="st0" x1="50" y1="468" x2="44" y2="468"/>
          <text class="st3" transform="translate(35.44 471.2)"><tspan x="0" y="0">2</tspan></text>
        </g>
        <g>
          <line class="st0" x1="50" y1="412" x2="44" y2="412"/>
          <text class="st3" transform="translate(35.44 415.2)"><tspan x="0" y="0">3</tspan></text>
        </g>
        <g>
          <line class="st0" x1="50" y1="356" x2="44" y2="356"/>
          <text class="st3" transform="translate(35.44 359.2)"><tspan x="0" y="0">4</tspan></text>
        </g>
        <g>
          <line class="st0" x1="50" y1="300" x2="44" y2="300"/>
          <text class="st3" transform="translate(35.44 303.2)"><tspan x="0" y="0">5</tspan></text>
        </g>
        <g>
          <line class="st0" x1="50" y1="244" x2="44" y2="244"/>
          <text class="st3" transform="translate(35.44 247.2)"><tspan x="0" y="0">6</tspan></text>
        </g>
        <g>
          <line class="st0" x1="50" y1="188" x2="44" y2="188"/>
          <text class="st3" transform="translate(35.44 191.2)"><tspan x="0" y="0">7</tspan></text>
        </g>
        <g>
          <line class="st0" x1="50" y1="132" x2="44" y2="132"/>
          <text class="st3" transform="translate(35.44 135.2)"><tspan x="0" y="0">8</tspan></text>
        </g>
        <g>
          <line class="st0" x1="50" y1="76" x2="44" y2="76"/>
          <text class="st3" transform="translate(35.44 79.2)"><tspan x="0" y="0">9</tspan></text>
        </g>
        <g>
          <line class="st0" x1="50" y1="20" x2="44" y2="20"/>
          <text class="st3" transform="translate(29.88 23.2)"><tspan x="0" y="0">10</tspan></text>
        </g>
        <text class="st2" transform="translate(54 30.29)"><tspan x="0" y="0">MILLIONS</tspan></text>
      </g>
    </g>
  </g>
  <text class="st2" transform="translate(162.85 508.28)"><tspan x="0" y="0">1.2M</tspan></text>
  <text class="st2" transform="translate(402.5 268.33)"><tspan x="0" y="0">5.5M</tspan></text>
  <text class="st2" transform="translate(661.49 16.01)"><tspan x="0" y="0">10M</tspan></text>
</svg>